<svg xmlns="http://www.w3.org/2000/svg" viewBox="0 0 512 512">
  <defs>
    <linearGradient id="leafGradient" x1="0%" y1="0%" x2="100%" y2="100%">
      <stop offset="0%" style="stop-color:#8BC34A;stop-opacity:1" />
      <stop offset="100%" style="stop-color:#689F38;stop-opacity:1" />
    </linearGradient>
  </defs>
  
  <!-- Main leaf -->
  <path fill="url(#leafGradient)" d="M 220 10 C 220 10 140 50 140 180 C 140 310 200 380 200 380 L 280 280 C 280 280 500 50 500 20 C 500 20 460 10 420 30 C 380 50 280 140 280 140 C 280 140 270 80 220 10 Z"/>
  
  <!-- Leaf vein -->
  <path fill="none" stroke="#669944" stroke-width="12" stroke-linecap="round" 
        d="M 280 140 Q 350 100 420 60"/>
  
  <!-- Stem -->
  <path fill="#8BC34A" d="M 200 380 C 200 380 180 420 170 460 C 160 500 180 510 180 510 C 180 510 200 500 210 460 C 220 420 200 380 200 380 Z"/>
  
  <!-- Checkmark/growth symbol -->
  <path fill="#689F38" d="M 70 180 L 120 250 L 220 100 L 180 80 L 110 200 L 80 160 Z"/>
</svg>
